# 3ds Max Wavefront OBJ Exporter v0.97b - (c)2007 guruware
# File Created: 01.07.2015 12:46:08

#
# object Sphere001
#

v  -0.22476 5.00000 -0.04683
v  -0.22476 4.50484 -2.21625
v  -1.16604 4.50484 -2.00141
v  -1.92088 4.50484 -1.39944
v  -2.33979 4.50484 -0.52957
v  -2.33979 4.50484 0.43591
v  -1.92088 4.50484 1.30578
v  -1.16604 4.50484 1.90775
v  -0.22476 4.50484 2.12259
v  0.71652 4.50484 1.90775
v  1.47136 4.50484 1.30578
v  1.89027 4.50484 0.43591
v  1.89027 4.50484 -0.52958
v  1.47136 4.50484 -1.39945
v  0.71651 4.50484 -2.00141
v  -0.22476 3.11745 -3.95599
v  -1.92088 3.11745 -3.56886
v  -3.28106 3.11745 -2.48415
v  -4.03591 3.11745 -0.91670
v  -4.03591 3.11745 0.82304
v  -3.28106 3.11745 2.39049
v  -1.92088 3.11745 3.47520
v  -0.22476 3.11745 3.86232
v  1.47136 3.11745 3.47520
v  2.83154 3.11745 2.39049
v  3.58639 3.11745 0.82303
v  3.58639 3.11745 -0.91671
v  2.83154 3.11745 -2.48416
v  1.47136 3.11745 -3.56886
v  -0.22476 1.11260 -4.92147
v  -2.33979 1.11260 -4.43873
v  -4.03591 1.11260 -3.08612
v  -4.97718 1.11260 -1.13154
v  -4.97718 1.11260 1.03788
v  -4.03591 1.11260 2.99245
v  -2.33979 1.11260 4.34507
v  -0.22476 1.11260 4.82781
v  1.89027 1.11260 4.34507
v  3.58639 1.11260 2.99245
v  4.52766 1.11260 1.03787
v  4.52766 1.11260 -1.13155
v  3.58638 1.11260 -3.08612
v  1.89026 1.11260 -4.43873
v  -0.22476 -1.11261 -4.92147
v  -2.33979 -1.11261 -4.43873
v  -4.03591 -1.11261 -3.08612
v  -4.97718 -1.11261 -1.13154
v  -4.97718 -1.11261 1.03788
v  -4.03591 -1.11261 2.99245
v  -2.33979 -1.11261 4.34507
v  -0.22476 -1.11261 4.82781
v  1.89027 -1.11261 4.34507
v  3.58639 -1.11261 2.99245
v  4.52766 -1.11261 1.03787
v  4.52766 -1.11261 -1.13155
v  3.58638 -1.11261 -3.08612
v  1.89026 -1.11261 -4.43873
v  -0.22476 -3.11745 -3.95599
v  -1.92088 -3.11745 -3.56886
v  -3.28106 -3.11745 -2.48415
v  -4.03591 -3.11745 -0.91670
v  -4.03591 -3.11745 0.82304
v  -3.28106 -3.11745 2.39049
v  -1.92088 -3.11745 3.47519
v  -0.22476 -3.11745 3.86232
v  1.47136 -3.11745 3.47519
v  2.83154 -3.11745 2.39049
v  3.58639 -3.11745 0.82303
v  3.58639 -3.11745 -0.91671
v  2.83154 -3.11745 -2.48416
v  1.47136 -3.11745 -3.56886
v  -0.22476 -4.50484 -2.21625
v  -1.16604 -4.50484 -2.00141
v  -1.92088 -4.50484 -1.39944
v  -2.33979 -4.50484 -0.52957
v  -2.33979 -4.50484 0.43591
v  -1.92088 -4.50484 1.30578
v  -1.16604 -4.50484 1.90774
v  -0.22476 -4.50484 2.12258
v  0.71652 -4.50484 1.90774
v  1.47136 -4.50484 1.30578
v  1.89027 -4.50484 0.43591
v  1.89027 -4.50484 -0.52958
v  1.47136 -4.50484 -1.39944
v  0.71651 -4.50484 -2.00141
v  -0.22476 -5.00000 -0.04683
# 86 vertices

vn 0.00000 1.00000 -0.00000
vn -0.00000 0.88847 -0.45894
vn -0.19913 0.88847 -0.41349
vn -0.35882 0.88847 -0.28615
vn -0.44744 0.88847 -0.10212
vn -0.44744 0.88847 0.10212
vn -0.35882 0.88847 0.28615
vn -0.19913 0.88847 0.41349
vn -0.00000 0.88847 0.45894
vn 0.19913 0.88847 0.41349
vn 0.35882 0.88847 0.28615
vn 0.44744 0.88847 0.10212
vn 0.44744 0.88847 -0.10213
vn 0.35882 0.88847 -0.28615
vn 0.19913 0.88847 -0.41349
vn -0.00000 0.60851 -0.79355
vn -0.34431 0.60851 -0.71496
vn -0.62042 0.60851 -0.49477
vn -0.77365 0.60851 -0.17658
vn -0.77365 0.60851 0.17658
vn -0.62042 0.60851 0.49477
vn -0.34431 0.60851 0.71496
vn -0.00000 0.60851 0.79355
vn 0.34431 0.60851 0.71496
vn 0.62042 0.60851 0.49477
vn 0.77365 0.60851 0.17658
vn 0.77365 0.60851 -0.17658
vn 0.62042 0.60851 -0.49477
vn 0.34431 0.60851 -0.71496
vn -0.00000 0.21597 -0.97640
vn -0.42364 0.21597 -0.87971
vn -0.76338 0.21597 -0.60878
vn -0.95192 0.21597 -0.21727
vn -0.95192 0.21597 0.21727
vn -0.76338 0.21597 0.60878
vn -0.42364 0.21597 0.87971
vn 0.00000 0.21597 0.97640
vn 0.42364 0.21597 0.87971
vn 0.76338 0.21597 0.60878
vn 0.95192 0.21597 0.21727
vn 0.95192 0.21597 -0.21727
vn 0.76338 0.21597 -0.60878
vn 0.42364 0.21597 -0.87971
vn -0.00000 -0.21597 -0.97640
vn -0.42364 -0.21597 -0.87971
vn -0.76338 -0.21597 -0.60878
vn -0.95192 -0.21597 -0.21727
vn -0.95192 -0.21597 0.21727
vn -0.76338 -0.21597 0.60878
vn -0.42364 -0.21597 0.87971
vn 0.00000 -0.21597 0.97640
vn 0.42364 -0.21597 0.87971
vn 0.76338 -0.21597 0.60878
vn 0.95192 -0.21597 0.21727
vn 0.95192 -0.21597 -0.21727
vn 0.76338 -0.21597 -0.60878
vn 0.42364 -0.21597 -0.87971
vn -0.00000 -0.60851 -0.79355
vn -0.34431 -0.60851 -0.71496
vn -0.62042 -0.60851 -0.49477
vn -0.77365 -0.60851 -0.17658
vn -0.77365 -0.60851 0.17658
vn -0.62042 -0.60851 0.49477
vn -0.34431 -0.60851 0.71496
vn 0.00000 -0.60851 0.79355
vn 0.34431 -0.60851 0.71496
vn 0.62042 -0.60851 0.49477
vn 0.77365 -0.60851 0.17658
vn 0.77365 -0.60851 -0.17658
vn 0.62042 -0.60851 -0.49477
vn 0.34431 -0.60851 -0.71496
vn -0.00000 -0.88847 -0.45894
vn -0.19913 -0.88847 -0.41349
vn -0.35882 -0.88847 -0.28615
vn -0.44744 -0.88847 -0.10212
vn -0.44744 -0.88847 0.10212
vn -0.35882 -0.88847 0.28615
vn -0.19913 -0.88847 0.41349
vn -0.00000 -0.88847 0.45894
vn 0.19913 -0.88847 0.41349
vn 0.35882 -0.88847 0.28615
vn 0.44744 -0.88847 0.10212
vn 0.44744 -0.88847 -0.10213
vn 0.35882 -0.88847 -0.28615
vn 0.19913 -0.88847 -0.41349
vn 0.00000 -1.00000 0.00000
# 86 vertex normals

g Sphere001
f 1/0/1 2/0/2 3/0/3 
f 1/0/1 3/0/3 4/0/4 
f 1/0/1 4/0/4 5/0/5 
f 1/0/1 5/0/5 6/0/6 
f 1/0/1 6/0/6 7/0/7 
f 1/0/1 7/0/7 8/0/8 
f 1/0/1 8/0/8 9/0/9 
f 1/0/1 9/0/9 10/0/10 
f 1/0/1 10/0/10 11/0/11 
f 1/0/1 11/0/11 12/0/12 
f 1/0/1 12/0/12 13/0/13 
f 1/0/1 13/0/13 14/0/14 
f 1/0/1 14/0/14 15/0/15 
f 1/0/1 15/0/15 2/0/2 
f 2/0/2 16/0/16 17/0/17 
f 2/0/2 17/0/17 3/0/3 
f 3/0/3 17/0/17 18/0/18 
f 3/0/3 18/0/18 4/0/4 
f 4/0/4 18/0/18 19/0/19 
f 4/0/4 19/0/19 5/0/5 
f 5/0/5 19/0/19 20/0/20 
f 5/0/5 20/0/20 6/0/6 
f 6/0/6 20/0/20 21/0/21 
f 6/0/6 21/0/21 7/0/7 
f 7/0/7 21/0/21 22/0/22 
f 7/0/7 22/0/22 8/0/8 
f 8/0/8 22/0/22 23/0/23 
f 8/0/8 23/0/23 9/0/9 
f 9/0/9 23/0/23 24/0/24 
f 9/0/9 24/0/24 10/0/10 
f 10/0/10 24/0/24 25/0/25 
f 10/0/10 25/0/25 11/0/11 
f 11/0/11 25/0/25 26/0/26 
f 11/0/11 26/0/26 12/0/12 
f 12/0/12 26/0/26 27/0/27 
f 12/0/12 27/0/27 13/0/13 
f 13/0/13 27/0/27 28/0/28 
f 13/0/13 28/0/28 14/0/14 
f 14/0/14 28/0/28 29/0/29 
f 14/0/14 29/0/29 15/0/15 
f 15/0/15 29/0/29 16/0/16 
f 15/0/15 16/0/16 2/0/2 
f 16/0/16 30/0/30 31/0/31 
f 16/0/16 31/0/31 17/0/17 
f 17/0/17 31/0/31 32/0/32 
f 17/0/17 32/0/32 18/0/18 
f 18/0/18 32/0/32 33/0/33 
f 18/0/18 33/0/33 19/0/19 
f 19/0/19 33/0/33 34/0/34 
f 19/0/19 34/0/34 20/0/20 
f 20/0/20 34/0/34 35/0/35 
f 20/0/20 35/0/35 21/0/21 
f 21/0/21 35/0/35 36/0/36 
f 21/0/21 36/0/36 22/0/22 
f 22/0/22 36/0/36 37/0/37 
f 22/0/22 37/0/37 23/0/23 
f 23/0/23 37/0/37 38/0/38 
f 23/0/23 38/0/38 24/0/24 
f 24/0/24 38/0/38 39/0/39 
f 24/0/24 39/0/39 25/0/25 
f 25/0/25 39/0/39 40/0/40 
f 25/0/25 40/0/40 26/0/26 
f 26/0/26 40/0/40 41/0/41 
f 26/0/26 41/0/41 27/0/27 
f 27/0/27 41/0/41 42/0/42 
f 27/0/27 42/0/42 28/0/28 
f 28/0/28 42/0/42 43/0/43 
f 28/0/28 43/0/43 29/0/29 
f 29/0/29 43/0/43 30/0/30 
f 29/0/29 30/0/30 16/0/16 
f 30/0/30 44/0/44 45/0/45 
f 30/0/30 45/0/45 31/0/31 
f 31/0/31 45/0/45 46/0/46 
f 31/0/31 46/0/46 32/0/32 
f 32/0/32 46/0/46 47/0/47 
f 32/0/32 47/0/47 33/0/33 
f 33/0/33 47/0/47 48/0/48 
f 33/0/33 48/0/48 34/0/34 
f 34/0/34 48/0/48 49/0/49 
f 34/0/34 49/0/49 35/0/35 
f 35/0/35 49/0/49 50/0/50 
f 35/0/35 50/0/50 36/0/36 
f 36/0/36 50/0/50 51/0/51 
f 36/0/36 51/0/51 37/0/37 
f 37/0/37 51/0/51 52/0/52 
f 37/0/37 52/0/52 38/0/38 
f 38/0/38 52/0/52 53/0/53 
f 38/0/38 53/0/53 39/0/39 
f 39/0/39 53/0/53 54/0/54 
f 39/0/39 54/0/54 40/0/40 
f 40/0/40 54/0/54 55/0/55 
f 40/0/40 55/0/55 41/0/41 
f 41/0/41 55/0/55 56/0/56 
f 41/0/41 56/0/56 42/0/42 
f 42/0/42 56/0/56 57/0/57 
f 42/0/42 57/0/57 43/0/43 
f 43/0/43 57/0/57 44/0/44 
f 43/0/43 44/0/44 30/0/30 
f 44/0/44 58/0/58 59/0/59 
f 44/0/44 59/0/59 45/0/45 
f 45/0/45 59/0/59 60/0/60 
f 45/0/45 60/0/60 46/0/46 
f 46/0/46 60/0/60 61/0/61 
f 46/0/46 61/0/61 47/0/47 
f 47/0/47 61/0/61 62/0/62 
f 47/0/47 62/0/62 48/0/48 
f 48/0/48 62/0/62 63/0/63 
f 48/0/48 63/0/63 49/0/49 
f 49/0/49 63/0/63 64/0/64 
f 49/0/49 64/0/64 50/0/50 
f 50/0/50 64/0/64 65/0/65 
f 50/0/50 65/0/65 51/0/51 
f 51/0/51 65/0/65 66/0/66 
f 51/0/51 66/0/66 52/0/52 
f 52/0/52 66/0/66 67/0/67 
f 52/0/52 67/0/67 53/0/53 
f 53/0/53 67/0/67 68/0/68 
f 53/0/53 68/0/68 54/0/54 
f 54/0/54 68/0/68 69/0/69 
f 54/0/54 69/0/69 55/0/55 
f 55/0/55 69/0/69 70/0/70 
f 55/0/55 70/0/70 56/0/56 
f 56/0/56 70/0/70 71/0/71 
f 56/0/56 71/0/71 57/0/57 
f 57/0/57 71/0/71 58/0/58 
f 57/0/57 58/0/58 44/0/44 
f 58/0/58 72/0/72 73/0/73 
f 58/0/58 73/0/73 59/0/59 
f 59/0/59 73/0/73 74/0/74 
f 59/0/59 74/0/74 60/0/60 
f 60/0/60 74/0/74 75/0/75 
f 60/0/60 75/0/75 61/0/61 
f 61/0/61 75/0/75 76/0/76 
f 61/0/61 76/0/76 62/0/62 
f 62/0/62 76/0/76 77/0/77 
f 62/0/62 77/0/77 63/0/63 
f 63/0/63 77/0/77 78/0/78 
f 63/0/63 78/0/78 64/0/64 
f 64/0/64 78/0/78 79/0/79 
f 64/0/64 79/0/79 65/0/65 
f 65/0/65 79/0/79 80/0/80 
f 65/0/65 80/0/80 66/0/66 
f 66/0/66 80/0/80 81/0/81 
f 66/0/66 81/0/81 67/0/67 
f 67/0/67 81/0/81 82/0/82 
f 67/0/67 82/0/82 68/0/68 
f 68/0/68 82/0/82 83/0/83 
f 68/0/68 83/0/83 69/0/69 
f 69/0/69 83/0/83 84/0/84 
f 69/0/69 84/0/84 70/0/70 
f 70/0/70 84/0/84 85/0/85 
f 70/0/70 85/0/85 71/0/71 
f 71/0/71 85/0/85 72/0/72 
f 71/0/71 72/0/72 58/0/58 
f 86/0/86 73/0/73 72/0/72 
f 86/0/86 74/0/74 73/0/73 
f 86/0/86 75/0/75 74/0/74 
f 86/0/86 76/0/76 75/0/75 
f 86/0/86 77/0/77 76/0/76 
f 86/0/86 78/0/78 77/0/77 
f 86/0/86 79/0/79 78/0/78 
f 86/0/86 80/0/80 79/0/79 
f 86/0/86 81/0/81 80/0/80 
f 86/0/86 82/0/82 81/0/81 
f 86/0/86 83/0/83 82/0/82 
f 86/0/86 84/0/84 83/0/83 
f 86/0/86 85/0/85 84/0/84 
f 86/0/86 72/0/72 85/0/85 
# 168 faces

