# 3ds Max Wavefront OBJ Exporter v0.97b - (c)2007 guruware
# File Created: 01.07.2015 12:22:49

#
# object Line002
#

v  3.72186 1.04652 -4.68286
v  3.72186 -1.58607 -4.68286
v  -0.77814 -1.58607 -4.68287
v  -0.77814 1.04652 -4.68287
v  3.72186 -3.90767 -2.09095
v  -0.77814 -3.90767 -2.09095
v  3.72186 -8.68474 -2.10366
v  -0.77814 -8.68474 -2.10366
v  3.72186 -10.69097 -4.45244
v  -0.77814 -10.69097 -4.45244
v  3.72186 -12.05079 -4.45244
v  -0.77814 -12.05079 -4.45244
v  3.72186 -11.89320 4.00380
v  -0.77814 -11.89320 4.00380
v  3.72186 -10.40976 4.00380
v  -0.77814 -10.40976 4.00380
v  3.72186 -8.49763 1.65663
v  -0.77814 -8.49763 1.65663
v  3.72186 -3.84201 1.65875
v  -0.77814 -3.84201 1.65875
v  3.72186 -1.49813 4.12683
v  -0.77814 -1.49813 4.12683
v  3.72186 1.51694 4.12903
v  -0.77814 1.51694 4.12903
v  3.72186 4.14901 1.67551
v  -0.77814 4.14901 1.67551
v  3.72186 4.15166 -2.11661
v  -0.77814 4.15166 -2.11661
# 28 vertices

vn 0.00000 0.00000 -1.00000
vn 0.00000 -0.74488 -0.66720
vn 0.00000 0.00266 -1.00000
vn 0.00000 0.76038 -0.64948
vn 0.00000 -0.99983 0.01863
vn -0.00000 0.00000 1.00000
vn -0.00000 0.77530 0.63160
vn -0.00000 -0.00045 1.00000
vn -0.00000 -0.72512 0.68863
vn -0.00000 -0.00073 1.00000
vn -0.00000 0.68186 0.73148
vn -0.00000 1.00000 0.00070
vn 0.00000 0.63705 -0.77082
vn 1.00000 0.00000 0.00000
vn 1.00000 -0.00000 0.00000
vn -1.00000 -0.00000 -0.00000
vn -1.00000 0.00000 -0.00000
# 17 vertex normals

g Line002
f 1/0/1 2/0/1 3/0/1 
f 1/0/1 3/0/1 4/0/1 
f 2/0/2 5/0/2 6/0/2 
f 2/0/2 6/0/2 3/0/2 
f 5/0/3 7/0/3 8/0/3 
f 5/0/3 8/0/3 6/0/3 
f 7/0/4 9/0/4 10/0/4 
f 7/0/4 10/0/4 8/0/4 
f 9/0/1 11/0/1 12/0/1 
f 9/0/1 12/0/1 10/0/1 
f 11/0/5 13/0/5 14/0/5 
f 11/0/5 14/0/5 12/0/5 
f 13/0/6 15/0/6 16/0/6 
f 13/0/6 16/0/6 14/0/6 
f 15/0/7 17/0/7 18/0/7 
f 15/0/7 18/0/7 16/0/7 
f 17/0/8 19/0/8 20/0/8 
f 17/0/8 20/0/8 18/0/8 
f 19/0/9 21/0/9 22/0/9 
f 19/0/9 22/0/9 20/0/9 
f 21/0/10 23/0/10 24/0/10 
f 21/0/10 24/0/10 22/0/10 
f 23/0/11 25/0/11 26/0/11 
f 23/0/11 26/0/11 24/0/11 
f 25/0/12 27/0/12 28/0/12 
f 25/0/12 28/0/12 26/0/12 
f 27/0/13 1/0/13 4/0/13 
f 27/0/13 4/0/13 28/0/13 
f 9/0/14 13/0/14 11/0/14 
f 7/0/14 13/0/14 9/0/14 
f 7/0/14 15/0/14 13/0/14 
f 7/0/14 17/0/14 15/0/14 
f 5/0/14 17/0/14 7/0/14 
f 5/0/14 19/0/14 17/0/14 
f 25/0/14 1/0/14 27/0/15 
f 23/0/14 1/0/14 25/0/14 
f 21/0/14 1/0/14 23/0/14 
f 19/0/14 1/0/14 21/0/14 
f 5/0/14 1/0/14 19/0/14 
f 2/0/14 1/0/14 5/0/14 
f 10/0/16 12/0/16 14/0/16 
f 8/0/16 10/0/16 14/0/16 
f 8/0/16 14/0/16 16/0/16 
f 8/0/16 16/0/16 18/0/16 
f 6/0/16 8/0/16 18/0/16 
f 6/0/16 18/0/16 20/0/16 
f 26/0/16 28/0/17 4/0/16 
f 24/0/16 26/0/16 4/0/16 
f 22/0/17 24/0/16 4/0/16 
f 20/0/16 22/0/17 4/0/16 
f 6/0/16 20/0/16 4/0/16 
f 3/0/16 6/0/16 4/0/16 
# 52 faces

